<?xml version="1.0" encoding="utf-8"?>
<!-- Generator: Adobe Illustrator 26.0.3, SVG Export Plug-In . SVG Version: 6.00 Build 0)  -->
<svg version="1.1" xmlns="http://www.w3.org/2000/svg" xmlns:xlink="http://www.w3.org/1999/xlink" x="0px" y="0px"
	 viewBox="0 0 1440 700" style="enable-background:new 0 0 1440 700;" xml:space="preserve">
<style type="text/css">
	.st0{clip-path:url(#SVGID_00000031207725282109055620000000186320095907717538_);}
	.st1{fill:url(#SVGID_00000018225648111938758410000001330213910039889836_);}
	.st2{clip-path:url(#SVGID_00000031207725282109055620000000186320095907717538_);fill:#261C3F;}
	
		.st3{clip-path:url(#SVGID_00000031207725282109055620000000186320095907717538_);fill-rule:evenodd;clip-rule:evenodd;fill:#261C3F;}
	.st4{clip-path:url(#SVGID_00000031207725282109055620000000186320095907717538_);fill:#F8FAF7;}
	.st5{clip-path:url(#SVGID_00000031207725282109055620000000186320095907717538_);fill:#241B3A;}
</style>
<g id="Camada_1">
	<g>
		<defs>
			<rect id="SVGID_1_" x="1.1" width="1440" height="700"/>
		</defs>
		
			<radialGradient id="SVGID_00000062193498242532140930000002827768496313762233_" cx="721.0525" cy="350" r="566.083" gradientUnits="userSpaceOnUse">
			<stop  offset="0.3" style="stop-color:#281D44"/>
			<stop  offset="0.9891" style="stop-color:#0A0B10"/>
		</radialGradient>
		<use xlink:href="#SVGID_1_"  style="overflow:visible;fill:url(#SVGID_00000062193498242532140930000002827768496313762233_);"/>
		<clipPath id="SVGID_00000072249754071620611920000012971995230420812448_">
			<use xlink:href="#SVGID_1_"  style="overflow:visible;"/>
		</clipPath>
		<g style="clip-path:url(#SVGID_00000072249754071620611920000012971995230420812448_);">
			
				<radialGradient id="SVGID_00000119822534444085530960000009273709152417123513_" cx="711.7622" cy="-1045.871" r="2451.7034" fx="708.0826" fy="-3442.9666" gradientUnits="userSpaceOnUse">
				<stop  offset="0.7536" style="stop-color:#2A1E46"/>
				<stop  offset="0.8047" style="stop-color:#1C1729"/>
				<stop  offset="0.8467" style="stop-color:#121215"/>
			</radialGradient>
			<rect x="1.1" y="0" style="fill:url(#SVGID_00000119822534444085530960000009273709152417123513_);" width="1440" height="700"/>
		</g>
		<polygon style="clip-path:url(#SVGID_00000072249754071620611920000012971995230420812448_);fill:#261C3F;" points="469.9,364.5 
			479.4,381.7 446.5,359.9 419.5,337.6 392.1,323.6 358.2,295.3 351.7,280.4 326.1,255.4 321.5,236.9 335.4,252.1 354.5,270.2 
			376.2,291.1 432.4,329.8 450.6,353.5 		"/>
		
			<path style="clip-path:url(#SVGID_00000072249754071620611920000012971995230420812448_);fill-rule:evenodd;clip-rule:evenodd;fill:#261C3F;" d="
			M1047.3,139.6c0,0,23.5,10.9,30.3,15.3s26.4,3.2,30.4,4c4,0.8,15.5,12.7,15.5,12.7s7,9,9.6,16c2.6,6.9,20.6,12,20.6,12l17.1,4.3
			c0,0-29.9-25.2-33.9-32c-4.1-6.7-1.9-13.9-9.7-16.5c-7.8-2.6-26.1-5.7-29.3-12.6c-3.1-6.9-35.7-27-45.4-29.8
			c-9.7-2.9-38-8.8-38-8.8S1037.2,131.2,1047.3,139.6z"/>
		
			<path style="clip-path:url(#SVGID_00000072249754071620611920000012971995230420812448_);fill-rule:evenodd;clip-rule:evenodd;fill:#261C3F;" d="
			M1194.7,6.1c0,0,39.5,35.4,63,49.2c23.5,13.8,36.4,7.9,36.4,7.9s20.7,6.1,33.4,15.8c12.7,9.8,10.7,27.5,18.6,37.3
			c7.9,9.8,40.3,3,40.3,3l48.6,53.7l32.1,33.8c0,0-34.7-45.2-40.5-55.1s-46.1-66.9-54-76.7c-7.9-9.8-18.7-7.9-26.6-21.6
			c-7.9-13.8-16.7-29.5-29.5-41.3c-12.8-11.8-39.3-29.5-53.6-37.4c-14.3-7.9-36.9-15.7-36.9-15.7l-39.3-8.9l-38.4-21l-176,0
			c0,0,86.3,59.3,125.6,74.1C1112.9,8.7,1194.7,6.1,1194.7,6.1z"/>
		<polygon style="clip-path:url(#SVGID_00000072249754071620611920000012971995230420812448_);fill:#261C3F;" points="-191.1,-38.5 
			-57.2,99.2 -25.9,77 2.8,94.5 31,113.7 73.6,127.7 79.5,178.1 121.1,180.5 168.4,196.1 163.6,172.1 135,130.4 78.3,61.9 62,27.8 
			48.8,-10.9 47,-48.1 -7,-113.1 		"/>
		
			<path style="clip-path:url(#SVGID_00000072249754071620611920000012971995230420812448_);fill-rule:evenodd;clip-rule:evenodd;fill:#261C3F;" d="
			M112.4,35.1c0,0-47.4-11.3-70-21.8C19.6,2.8,17.4-10,17.4-10S1.9-22.5-12.1-26.9c-14-4.5-26.3,6.3-37.8,5.5
			c-11.5-0.8-23.3-28.9-23.3-28.9l-65.9-8.6l-42.3-6.6c0,0,52.3,2.5,62.7,1.8c10.5-0.7,74.6-0.2,86.1,0.6c11.5,0.8,15.7,10,30.2,8.7
			c14.5-1.3,31-2.8,46.6,0.6s42.8,14.2,56.2,20.9c13.4,6.6,31.2,19.6,31.2,19.6l27.3,25l35.9,18l92.1,132.7c0,0-89.9-34.1-121.5-56
			C153.2,98.2,112.4,35.1,112.4,35.1z"/>
		<path style="clip-path:url(#SVGID_00000072249754071620611920000012971995230420812448_);fill:#F8FAF7;" d="M731.6,174.9
			c0.2,0,0.3-0.1,0.5-0.1c0.9-0.1,1.8-0.1,2.3,0.9c0.4,0.8-0.1,1.3-0.5,1.7c-0.7,0.7-1.5,0.4-2.2-0.1
			C730.8,176.5,730.9,175.7,731.6,174.9z"/>
		<path style="clip-path:url(#SVGID_00000072249754071620611920000012971995230420812448_);fill:#241B3A;" d="M593.1,247.3
			c2.7,3.5,7.1,4.1,10.6,6c6.7,3.6,11.1,9.1,14.6,15.3c1.4,2.6,4,4.5,4.5,7.6c-12.8-4.6-24.9-10.3-31.4-23.4
			c-1.2-2.4-2.8-4.5-4.3-6.7c0.1-0.7,0.3-1.3,0.4-2C589.4,245,590.7,247.1,593.1,247.3z"/>
		<path style="clip-path:url(#SVGID_00000072249754071620611920000012971995230420812448_);fill:#F8FAF7;" d="M598.2,153.9
			c-0.2-0.1-0.4-0.2-0.6-0.4c-1.2-2.3-0.7-3.2,1.6-3.2c0.2,0.1,0.5,0.3,0.7,0c0,0,0-0.1,0-0.1c-0.1,0.4,0,0.5,0.4,0.4
			c-0.1,0-0.2,0-0.2,0.1c0.2,0.7,0.4,1.5,0.6,2.2C600.1,153.9,599.2,154.2,598.2,153.9z"/>
		<path style="clip-path:url(#SVGID_00000072249754071620611920000012971995230420812448_);fill:#F8FAF7;" d="M658.5,140.9
			c-0.1,0.8-0.5,1.4-1.3,1.4c-1.2,0-1.4-1.1-1.4-1.8c-0.1-0.7,0.8-1,1.4-1C658,139.4,658.5,140.1,658.5,140.9z"/>
		<path style="clip-path:url(#SVGID_00000072249754071620611920000012971995230420812448_);fill:#F8FAF7;" d="M899.6,223
			c0.2,0,0.3-0.1,0.5-0.1c0.9-0.1,1.8-0.1,2.3,0.9c0.4,0.8-0.1,1.3-0.5,1.7c-0.7,0.7-1.5,0.4-2.2-0.1
			C898.9,224.7,898.9,223.9,899.6,223z"/>
		<path style="clip-path:url(#SVGID_00000072249754071620611920000012971995230420812448_);fill:#F8FAF7;" d="M766.2,202.1
			c-0.2-0.1-0.4-0.2-0.6-0.4c-1.2-2.3-0.7-3.2,1.6-3.2c0.2,0.1,0.5,0.3,0.7,0c0,0,0-0.1,0-0.1c-0.1,0.4,0,0.5,0.4,0.4
			c-0.1,0-0.2,0-0.2,0.1c0.2,0.7,0.4,1.5,0.6,2.2C768.1,202.1,767.2,202.4,766.2,202.1z"/>
		<path style="clip-path:url(#SVGID_00000072249754071620611920000012971995230420812448_);fill:#F8FAF7;" d="M826.6,189.1
			c-0.1,0.8-0.5,1.4-1.3,1.4c-1.2,0-1.4-1.1-1.4-1.8c-0.1-0.7,0.8-1,1.4-1C826,187.6,826.5,188.2,826.6,189.1z"/>
		<path style="clip-path:url(#SVGID_00000072249754071620611920000012971995230420812448_);fill:#F8FAF7;" d="M244.4,182
			c-0.2-0.1-0.4-0.2-0.6-0.4c-1.2-2.3-0.7-3.2,1.6-3.2c0.2,0.1,0.5,0.3,0.7,0c0,0,0-0.1,0-0.1c-0.1,0.4,0,0.5,0.4,0.4
			c-0.1,0-0.2,0-0.2,0.1c0.2,0.7,0.4,1.5,0.6,2.2C246.3,182,245.5,182.3,244.4,182z"/>
		<path style="clip-path:url(#SVGID_00000072249754071620611920000012971995230420812448_);fill:#F8FAF7;" d="M304.8,169
			c-0.1,0.8-0.5,1.4-1.3,1.4c-1.2,0-1.4-1.1-1.4-1.8c-0.1-0.7,0.8-1,1.4-1C304.3,167.5,304.8,168.1,304.8,169z"/>
		<path style="clip-path:url(#SVGID_00000072249754071620611920000012971995230420812448_);fill:#F8FAF7;" d="M545.9,251.1
			c0.2,0,0.3-0.1,0.5-0.1c0.9-0.1,1.8-0.1,2.3,0.9c0.4,0.8-0.1,1.3-0.5,1.7c-0.7,0.7-1.5,0.4-2.2-0.1
			C545.1,252.7,545.1,251.9,545.9,251.1z"/>
		<path style="clip-path:url(#SVGID_00000072249754071620611920000012971995230420812448_);fill:#F8FAF7;" d="M412.4,230.2
			c-0.2-0.1-0.4-0.2-0.6-0.4c-1.2-2.3-0.7-3.2,1.6-3.2c0.2,0.1,0.5,0.3,0.7,0c0,0,0-0.1,0-0.1c-0.1,0.4,0,0.5,0.4,0.4
			c-0.1,0-0.2,0-0.2,0.1c0.2,0.7,0.4,1.5,0.6,2.2C414.3,230.1,413.5,230.5,412.4,230.2z"/>
		<path style="clip-path:url(#SVGID_00000072249754071620611920000012971995230420812448_);fill:#F8FAF7;" d="M472.8,217.2
			c-0.1,0.8-0.5,1.4-1.3,1.4c-1.2,0-1.4-1.1-1.4-1.8c-0.1-0.7,0.8-1,1.4-1C472.3,215.7,472.8,216.3,472.8,217.2z"/>
		<path style="clip-path:url(#SVGID_00000072249754071620611920000012971995230420812448_);fill:#F8FAF7;" d="M277,75.2
			c-0.2-0.1-0.4-0.2-0.6-0.4c-1.2-2.3-0.7-3.2,1.6-3.2c0.2,0.1,0.5,0.3,0.7,0c0,0,0-0.1,0-0.1c-0.1,0.4,0,0.5,0.4,0.4
			c-0.1,0-0.2,0-0.2,0.1c0.2,0.7,0.4,1.5,0.6,2.2C278.8,75.1,278,75.5,277,75.2z"/>
		<path style="clip-path:url(#SVGID_00000072249754071620611920000012971995230420812448_);fill:#F8FAF7;" d="M337.3,62.2
			c-0.1,0.8-0.5,1.4-1.3,1.4c-1.2,0-1.4-1.1-1.4-1.8c-0.1-0.7,0.8-1,1.4-1C336.8,60.7,337.3,61.3,337.3,62.2z"/>
		<path style="clip-path:url(#SVGID_00000072249754071620611920000012971995230420812448_);fill:#F8FAF7;" d="M578.4,144.3
			c0.2,0,0.3-0.1,0.5-0.1c0.9-0.1,1.8-0.1,2.3,0.9c0.4,0.8-0.1,1.3-0.5,1.7c-0.7,0.7-1.5,0.4-2.2-0.1
			C577.7,145.9,577.7,145.1,578.4,144.3z"/>
		<path style="clip-path:url(#SVGID_00000072249754071620611920000012971995230420812448_);fill:#F8FAF7;" d="M445,123.3
			c-0.2-0.1-0.4-0.2-0.6-0.4c-1.2-2.3-0.7-3.2,1.6-3.2c0.2,0.1,0.5,0.3,0.7,0c0,0,0-0.1,0-0.1c-0.1,0.4,0,0.5,0.4,0.4
			c-0.1,0-0.2,0-0.2,0.1c0.2,0.7,0.4,1.5,0.6,2.2C446.9,123.3,446,123.6,445,123.3z"/>
		<path style="clip-path:url(#SVGID_00000072249754071620611920000012971995230420812448_);fill:#F8FAF7;" d="M505.4,110.3
			c-0.1,0.8-0.5,1.4-1.3,1.4c-1.2,0-1.4-1.1-1.4-1.8c-0.1-0.7,0.8-1,1.4-1C504.8,108.8,505.3,109.5,505.4,110.3z"/>
		<path style="clip-path:url(#SVGID_00000072249754071620611920000012971995230420812448_);fill:#F8FAF7;" d="M798.8,62.8
			c-0.2-0.1-0.4-0.2-0.6-0.4c-1.2-2.3-0.7-3.2,1.6-3.2c0.2,0.1,0.5,0.3,0.7,0c0,0,0-0.1,0-0.1c-0.1,0.4,0,0.5,0.4,0.4
			c-0.1,0-0.2,0-0.2,0.1c0.2,0.7,0.4,1.5,0.6,2.2C800.7,62.7,799.8,63.1,798.8,62.8z"/>
		<path style="clip-path:url(#SVGID_00000072249754071620611920000012971995230420812448_);fill:#F8FAF7;" d="M859.1,49.8
			c-0.1,0.8-0.5,1.4-1.3,1.4c-1.2,0-1.4-1.1-1.4-1.8c-0.1-0.7,0.8-1,1.4-1C858.6,48.3,859.1,48.9,859.1,49.8z"/>
		<path style="clip-path:url(#SVGID_00000072249754071620611920000012971995230420812448_);fill:#F8FAF7;" d="M1100.2,131.9
			c0.2,0,0.3-0.1,0.5-0.1c0.9-0.1,1.8-0.1,2.3,0.9c0.4,0.8-0.1,1.3-0.5,1.7c-0.7,0.7-1.5,0.4-2.2-0.1
			C1099.5,133.5,1099.5,132.7,1100.2,131.9z"/>
		<path style="clip-path:url(#SVGID_00000072249754071620611920000012971995230420812448_);fill:#F8FAF7;" d="M966.8,111
			c-0.2-0.1-0.4-0.2-0.6-0.4c-1.2-2.3-0.7-3.2,1.6-3.2c0.2,0.1,0.5,0.3,0.7,0c0,0,0-0.1,0-0.1c-0.1,0.4,0,0.5,0.4,0.4
			c-0.1,0-0.2,0-0.2,0.1c0.2,0.7,0.4,1.5,0.6,2.2C968.7,110.9,967.8,111.2,966.8,111z"/>
		<path style="clip-path:url(#SVGID_00000072249754071620611920000012971995230420812448_);fill:#F8FAF7;" d="M1027.2,97.9
			c-0.1,0.8-0.5,1.4-1.3,1.4c-1.2,0-1.4-1.1-1.4-1.8c-0.1-0.7,0.8-1,1.4-1C1026.6,96.5,1027.1,97.1,1027.2,97.9z"/>
		<path style="clip-path:url(#SVGID_00000072249754071620611920000012971995230420812448_);fill:#F8FAF7;" d="M1051.2,104
			c-0.2-0.1-0.4-0.2-0.6-0.4c-1.2-2.3-0.7-3.2,1.6-3.2c0.2,0.1,0.5,0.3,0.7,0c0,0,0-0.1,0-0.1c-0.1,0.4,0,0.5,0.4,0.4
			c-0.1,0-0.2,0-0.2,0.1c0.2,0.7,0.4,1.5,0.6,2.2C1053.1,103.9,1052.3,104.3,1051.2,104z"/>
		<path style="clip-path:url(#SVGID_00000072249754071620611920000012971995230420812448_);fill:#F8FAF7;" d="M1111.6,91
			c-0.1,0.8-0.5,1.4-1.3,1.4c-1.2,0-1.4-1.1-1.4-1.8c-0.1-0.7,0.8-1,1.4-1C1111.1,89.5,1111.5,90.1,1111.6,91z"/>
		<path style="clip-path:url(#SVGID_00000072249754071620611920000012971995230420812448_);fill:#F8FAF7;" d="M1352.6,173.1
			c0.2,0,0.3-0.1,0.5-0.1c0.9-0.1,1.8-0.1,2.3,0.9c0.4,0.8-0.1,1.3-0.5,1.7c-0.7,0.7-1.5,0.4-2.2-0.1
			C1351.9,174.7,1351.9,173.9,1352.6,173.1z"/>
		<path style="clip-path:url(#SVGID_00000072249754071620611920000012971995230420812448_);fill:#F8FAF7;" d="M1219.2,152.1
			c-0.2-0.1-0.4-0.2-0.6-0.4c-1.2-2.3-0.7-3.2,1.6-3.2c0.2,0.1,0.5,0.3,0.7,0c0,0,0-0.1,0-0.1c-0.1,0.4,0,0.5,0.4,0.4
			c-0.1,0-0.2,0-0.2,0.1c0.2,0.7,0.4,1.5,0.6,2.2C1221.1,152.1,1220.3,152.4,1219.2,152.1z"/>
		<path style="clip-path:url(#SVGID_00000072249754071620611920000012971995230420812448_);fill:#F8FAF7;" d="M1279.6,139.1
			c-0.1,0.8-0.5,1.4-1.3,1.4c-1.2,0-1.4-1.1-1.4-1.8c-0.1-0.7,0.8-1,1.4-1C1279.1,137.6,1279.5,138.3,1279.6,139.1z"/>
		<path style="clip-path:url(#SVGID_00000072249754071620611920000012971995230420812448_);fill:#261C3F;" d="M1288.1,269.9
			c8.9,11.9,15.2,27.4,25.7,37.9c9.3,9.3,23.1,12.5,35.2,16.7c-10.5-24.4-24.1-43.8-46.1-60.3c-8.7-6.5-32.8-18.2-33.2-17.6
			C1268.7,247.8,1282.5,262.5,1288.1,269.9z"/>
		
			<path style="clip-path:url(#SVGID_00000072249754071620611920000012971995230420812448_);fill-rule:evenodd;clip-rule:evenodd;fill:#261C3F;" d="
			M716.7,18.8c0,0,36.4,18.6,52.9,31.6c16.4,13.1,15.8,24,15.8,24S795.4,87.6,806,94c10.5,6.4,22.7,0.1,32,3
			c9.3,2.9,13.3,28.2,13.3,28.2l52.1,20l33.2,13.7c0,0-42.2-12.4-50.8-13.8c-8.7-1.5-60.9-14.6-70.2-17.5
			c-9.3-2.9-10.8-11.2-22.9-13.1c-12.1-1.8-25.9-3.8-37.9-9.7c-12-5.9-32.1-20.1-41.8-28.1c-9.6-8.1-21.6-22.1-21.6-22.1l-17.3-25.8
			L648.5,7l-48.9-126.5c0,0,66.6,45.6,88.2,69.7C695.8-40.8,716.7,18.8,716.7,18.8z"/>
	</g>
</g>
<g id="Camada_2">
	
		<image style="overflow:visible;" width="1439" height="700" xlink:href="../Documents/Projetos/andrews-os-ts/src/assets/img/bg.png"  transform="matrix(1 0 0 1 -1453.4678 0)">
	</image>
</g>
</svg>
