<?xml version="1.0" encoding="utf-8"?>
<!-- Generator: Adobe Illustrator 26.0.3, SVG Export Plug-In . SVG Version: 6.00 Build 0)  -->
<svg version="1.1" id="Camada_1" xmlns="http://www.w3.org/2000/svg" xmlns:xlink="http://www.w3.org/1999/xlink" x="0px" y="0px"
	 viewBox="0 0 1080 1080" style="enable-background:new 0 0 1080 1080;" xml:space="preserve">
<style type="text/css">
	.st0{display:none;}
	.st1{display:inline;fill:#171717;}
	.st2{display:inline;}
	.st3{display:none;fill:#E8E8E8;}
	.st4{fill:#E8E8E8;}
	.st5{display:inline;fill:#FEFEFE;}
	.st6{display:none;fill:#B51918;}
	.st7{fill:#171717;}
	.st8{fill:#EEEEF7;}
</style>
<g id="Background">
	<g class="st0">
		<rect y="1188" class="st1" width="1080" height="1080"/>
		<g id="_x33__00000127748803723013265490000015382611978663288242_" class="st2">
			<g id="_x31__00000174581715163431827920000012997241642430135688_">
				<path class="st3" d="M549,1782l-72-90v-108h18l64.8,81l7.2,9v108H549z"/>
				<path class="st4" d="M702,1458.1l-54,53.9v90l-54,63h-9l-9,9v108h18l126-145.5V1458L702,1458.1z"/>
				<path class="st4" d="M540,1782l-72-90v-108h18l54,81h9l9,9v108H540z"/>
			</g>
			<g class="st0">
				<path class="st5" d="M564.8,1782l-87.9-97v-102.8h9.4l87.3,96.4V1782H564.8z"/>
				<path class="st5" d="M710,1439.9l-60.9,67.2v96.4l-52.7,58.2h-8.2l-9.4,10.3v110h9.4L720,1636.5v-196.6H710z"/>
			</g>
			<path class="st6" d="M558.2,1782l-87.9-97v-102.8h9.4l87.3,96.4V1782H558.2z"/>
		</g>
	</g>
</g>
<g id="Camada_3">
	<path class="st7" d="M128,0h824c70.7,0,128,57.3,128,128v824c0,70.7-57.3,128-128,128H128c-70.7,0-128-57.3-128-128V128
		C0,57.3,57.3,0,128,0z"/>
	<g id="_x31__00000161609849781131395360000011965769172277359802_">
		<path class="st8" d="M774.4,184.9L667.3,291.9c-4.3,4.3-6.8,10.2-6.8,16.3v182.9c0,5.5-2,10.8-5.5,15L546.9,632.3
			c-4.4,5.1-10.8,8-17.5,8l0,0c-6.1,0-12,2.4-16.3,6.7l-6.6,6.6c-4.3,4.3-6.7,10.2-6.7,16.3v208.7c0,12.7,10.3,23,23,23h6.7
			c6.7,0,13-2.9,17.4-8l268.9-310.4c3.6-4.2,5.6-9.5,5.6-15.1V201.2c0-12.7-10.3-23-23-23h-7.7C784.6,178.2,778.7,180.6,774.4,184.9
			z"/>
		<path class="st8" d="M413.1,893.8L263.2,706.6c-3-3.8-4.7-8.4-4.7-13.3V480.9c0-11.7,9.5-21.2,21.2-21.2h7.6
			c7.1,0,13.7,3.5,17.7,9.4l108,162c3.9,5.9,10.6,9.4,17.7,9.4h0c5.6,0,11,2.2,15,6.2l7.7,7.7c4,4,6.2,9.4,6.2,15v211.1
			c0,11.7-9.5,21.2-21.2,21.2h-8.7C423.2,901.8,417.1,898.9,413.1,893.8z"/>
	</g>
</g>
<g id="Camada_2_00000153682094331596122960000012858509133965788602_">
	<g id="_x33_">
		<g class="st0">
			<path class="st5" d="M533,1935l-136.4-150.6v-159.6h14.5l135.5,149.6V1935H533z"/>
			<path class="st5" d="M758.5,1404L664,1508.4V1658l-81.9,90.4h-12.7l-14.5,16V1935h14.5L774,1709.2V1404H758.5z"/>
		</g>
		<path class="st6" d="M522.9,1935l-136.4-150.6v-159.6H401l135.5,149.6V1935H522.9z"/>
	</g>
</g>
</svg>
