<?xml version="1.0" encoding="utf-8"?>
<!-- Generator: Adobe Illustrator 26.0.3, SVG Export Plug-In . SVG Version: 6.00 Build 0)  -->
<svg version="1.1" id="Camada_1" xmlns="http://www.w3.org/2000/svg" xmlns:xlink="http://www.w3.org/1999/xlink" x="0px" y="0px"
	 viewBox="0 0 1080 1080" style="enable-background:new 0 0 1080 1080;" xml:space="preserve">
<style type="text/css">
	.st0{display:none;}
	.st1{display:inline;fill:#171717;}
	.st2{display:inline;}
	.st3{display:none;fill:#E8E8E8;}
	.st4{fill:#E8E8E8;}
	.st5{display:inline;fill:#FEFEFE;}
	.st6{display:none;fill:#B51918;}
	.st7{fill:#171717;}
	.st8{fill:url(#SVGID_1_);}
	.st9{fill:url(#SVGID_00000064342835746043738170000006736853455091502210_);}
	.st10{fill:url(#SVGID_00000009574724716693642440000006471082761885351573_);}
	.st11{fill:url(#SVGID_00000027586202777733896970000001492485194528818598_);}
	.st12{fill:url(#SVGID_00000177453917288904618160000006456746334278729648_);}
	.st13{fill:url(#SVGID_00000015317239622619968290000018229975284523780764_);}
</style>
<g id="Background">
	<g class="st0">
		<rect y="1188" class="st1" width="1080" height="1080"/>
		<g id="_x33__00000127748803723013265490000015382611978663288242_" class="st2">
			<g id="_x31__00000174581715163431827920000012997241642430135688_">
				<path class="st3" d="M549,1782l-72-90v-108h18l64.8,81l7.2,9v108H549z"/>
				<path class="st4" d="M702,1458.1l-54,53.9v90l-54,63h-9l-9,9v108h18l126-145.5V1458L702,1458.1z"/>
				<path class="st4" d="M540,1782l-72-90v-108h18l54,81h9l9,9v108H540z"/>
			</g>
			<g class="st0">
				<path class="st5" d="M564.8,1782l-87.9-97v-102.8h9.4l87.3,96.4V1782H564.8z"/>
				<path class="st5" d="M710,1439.9l-60.9,67.2v96.4l-52.7,58.2h-8.2l-9.4,10.3v110h9.4L720,1636.5v-196.6H710z"/>
			</g>
			<path class="st6" d="M558.2,1782l-87.9-97v-102.8h9.4l87.3,96.4V1782H558.2z"/>
		</g>
	</g>
</g>
<g id="Camada_4">
	<g>
		<rect x="-1305" y="1188" class="st7" width="1080" height="1080"/>
		<g>
			<path class="st4" d="M-554,1477.1l-97.8,83.8v139.7l-83.8,97.8h-14l-14,14V1980h14l209.6-225.8v-277.1H-554z"/>
			<path class="st4" d="M-805.4,1980l-125.7-139.7v-167.6h14l97.8,125.7h14l14,14V1980H-805.4z"/>
		</g>
	</g>
</g>
<g id="Camada_3">
	<rect y="1188" class="st7" width="1080" height="1080"/>
	<g id="_x31__00000139270711614873355840000014537490577410328704_">
		<linearGradient id="SVGID_1_" gradientUnits="userSpaceOnUse" x1="392.683" y1="1125.0481" x2="938.4895" y2="196.0158">
			<stop  offset="5.586592e-03" style="stop-color:#733BE0"/>
			<stop  offset="1" style="stop-color:#FF459A"/>
		</linearGradient>
		<path class="st8" d="M876,36.2L708,204v280L540,680h-28l-28,28v336h56l392-452.6V36L876,36.2z"/>
		
			<linearGradient id="SVGID_00000044893835109258780910000003289723984959394997_" gradientUnits="userSpaceOnUse" x1="144.9432" y1="979.5009" x2="690.7497" y2="50.4687">
			<stop  offset="5.586592e-03" style="stop-color:#733BE0"/>
			<stop  offset="1" style="stop-color:#FF459A"/>
		</linearGradient>
		<path style="fill:url(#SVGID_00000044893835109258780910000003289723984959394997_);" d="M372,1044L148,764V428h56l168,252h28
			l28,28v336H372z"/>
	</g>
	<g id="_x31__00000147208927950966127510000008673722464630242490_">
		
			<linearGradient id="SVGID_00000172425704548480511880000012690203615129057717_" gradientUnits="userSpaceOnUse" x1="392.683" y1="26.4674" x2="938.4895" y2="-902.5649">
			<stop  offset="5.586592e-03" style="stop-color:#FD029C"/>
			<stop  offset="1" style="stop-color:#00CCFF"/>
		</linearGradient>
		<path style="fill:url(#SVGID_00000172425704548480511880000012690203615129057717_);" d="M876-1062.4L708-894.6v280l-168,196h-28
			l-28,28v336h56l392-452.6v-555.4L876-1062.4z"/>
		
			<linearGradient id="SVGID_00000101070290335323675660000009402262378722323863_" gradientUnits="userSpaceOnUse" x1="144.9432" y1="-119.0797" x2="690.7497" y2="-1048.1119">
			<stop  offset="5.586592e-03" style="stop-color:#FD029C"/>
			<stop  offset="1" style="stop-color:#00CCFF"/>
		</linearGradient>
		<path style="fill:url(#SVGID_00000101070290335323675660000009402262378722323863_);" d="M372-54.6l-224-280v-336h56l168,252h28
			l28,28v336H372z"/>
	</g>
	<g id="_x31__00000150090863685269688670000011493178806946414773_">
		
			<linearGradient id="SVGID_00000044871044793494070070000002139564663904980630_" gradientUnits="userSpaceOnUse" x1="-764.317" y1="1101.8223" x2="-218.5105" y2="172.79">
			<stop  offset="0" style="stop-color:#FFC627"/>
			<stop  offset="1" style="stop-color:#FF459A"/>
		</linearGradient>
		<path style="fill:url(#SVGID_00000044871044793494070070000002139564663904980630_);" d="M-281,13l-168,167.8v280l-168,196h-28
			l-28,28v336h56l392-452.6V12.8L-281,13z"/>
		
			<linearGradient id="SVGID_00000066502583762602308170000006828946164277088903_" gradientUnits="userSpaceOnUse" x1="-1012.0568" y1="956.2751" x2="-466.2503" y2="27.2428">
			<stop  offset="0" style="stop-color:#FFC627"/>
			<stop  offset="1" style="stop-color:#FF459A"/>
		</linearGradient>
		<path style="fill:url(#SVGID_00000066502583762602308170000006828946164277088903_);" d="M-785,1020.8l-224-280v-336h56l168,252
			h28l28,28v336H-785z"/>
	</g>
	<g id="_x31__00000117646146264222488900000006283032772128649096_">
		<path class="st4" d="M707.6,1476.6l-83.8,83.7V1700l-83.8,97.8h-14l-14,14v167.7h28l195.6-225.8v-277.1H707.6z"/>
		<path class="st4" d="M456.2,1979.5l-111.8-139.7v-167.6h27.9l83.8,125.7h14l14,14v167.6H456.2z"/>
	</g>
</g>
<g id="Camada_2_00000153682094331596122960000012858509133965788602_">
	<g id="_x33_">
		<g class="st0">
			<path class="st5" d="M533,1935l-136.4-150.6v-159.6h14.5l135.5,149.6V1935H533z"/>
			<path class="st5" d="M758.5,1404L664,1508.4V1658l-81.9,90.4h-12.7l-14.5,16V1935h14.5L774,1709.2V1404H758.5z"/>
		</g>
		<path class="st6" d="M522.9,1935l-136.4-150.6v-159.6H401l135.5,149.6V1935H522.9z"/>
	</g>
</g>
</svg>
